<mxfile host="www.draw.io" modified="2020-03-05T16:29:15.809Z" agent="Mozilla/5.0 (Macintosh; Intel Mac OS X 10_14_0) AppleWebKit/537.36 (KHTML, like Gecko) Chrome/80.0.3987.132 Safari/537.36" etag="Q72w1yPq6ZgZ0YDlhklW" version="12.7.9" type="github">
  <diagram id="GvN6xHSMd3Es1mWxxkjV" name="Page-1">
    <mxGraphModel dx="946" dy="1782" grid="1" gridSize="10" guides="1" tooltips="1" connect="1" arrows="1" fold="1" page="1" pageScale="1" pageWidth="827" pageHeight="1169" math="0" shadow="0">
      <root>
        <mxCell id="0" />
        <mxCell id="1" parent="0" />
        <mxCell id="GRJgY5RRLAInYM_Wc20V-3" value="" style="edgeStyle=orthogonalEdgeStyle;rounded=0;orthogonalLoop=1;jettySize=auto;html=1;" parent="1" source="GRJgY5RRLAInYM_Wc20V-1" target="GRJgY5RRLAInYM_Wc20V-2" edge="1">
          <mxGeometry relative="1" as="geometry" />
        </mxCell>
        <mxCell id="GRJgY5RRLAInYM_Wc20V-1" value="schedulable nodes" style="rounded=0;whiteSpace=wrap;html=1;" parent="1" vertex="1">
          <mxGeometry x="184" y="100" width="196" height="40" as="geometry" />
        </mxCell>
        <mxCell id="lg2LP7ItbaPDtnVaV1oR-6" style="edgeStyle=orthogonalEdgeStyle;rounded=0;orthogonalLoop=1;jettySize=auto;html=1;exitX=0.5;exitY=1;exitDx=0;exitDy=0;" edge="1" parent="1" source="GRJgY5RRLAInYM_Wc20V-2" target="lg2LP7ItbaPDtnVaV1oR-5">
          <mxGeometry relative="1" as="geometry" />
        </mxCell>
        <mxCell id="GRJgY5RRLAInYM_Wc20V-2" value="" style="rounded=0;whiteSpace=wrap;html=1;" parent="1" vertex="1">
          <mxGeometry x="184" y="191" width="196" height="169" as="geometry" />
        </mxCell>
        <mxCell id="GRJgY5RRLAInYM_Wc20V-35" style="edgeStyle=orthogonalEdgeStyle;curved=1;rounded=0;orthogonalLoop=1;jettySize=auto;html=1;exitX=0;exitY=0.5;exitDx=0;exitDy=0;entryX=0;entryY=0.5;entryDx=0;entryDy=0;startArrow=none;startFill=0;endArrow=classic;endFill=1;" parent="1" source="GRJgY5RRLAInYM_Wc20V-28" target="GRJgY5RRLAInYM_Wc20V-33" edge="1">
          <mxGeometry relative="1" as="geometry">
            <Array as="points">
              <mxPoint x="184" y="490" />
              <mxPoint x="110" y="490" />
              <mxPoint x="110" y="35" />
            </Array>
          </mxGeometry>
        </mxCell>
        <mxCell id="GRJgY5RRLAInYM_Wc20V-28" value="" style="rounded=0;whiteSpace=wrap;html=1;" parent="1" vertex="1">
          <mxGeometry x="184" y="510" width="196" height="94" as="geometry" />
        </mxCell>
        <mxCell id="GRJgY5RRLAInYM_Wc20V-5" value="&lt;pre style=&quot;background-color: rgb(255 , 255 , 255) ; font-family: &amp;#34;menlo&amp;#34;&quot;&gt;&lt;font style=&quot;font-size: 9px&quot;&gt;findNodesThatFit&lt;/font&gt;&lt;/pre&gt;" style="text;html=1;strokeColor=none;fillColor=none;align=center;verticalAlign=middle;whiteSpace=wrap;rounded=0;" parent="1" vertex="1">
          <mxGeometry x="186" y="193" width="116" height="20" as="geometry" />
        </mxCell>
        <mxCell id="GRJgY5RRLAInYM_Wc20V-9" value="" style="edgeStyle=orthogonalEdgeStyle;rounded=0;orthogonalLoop=1;jettySize=auto;html=1;" parent="1" source="GRJgY5RRLAInYM_Wc20V-7" target="GRJgY5RRLAInYM_Wc20V-8" edge="1">
          <mxGeometry relative="1" as="geometry" />
        </mxCell>
        <mxCell id="GRJgY5RRLAInYM_Wc20V-27" value="if more than one node" style="text;html=1;align=center;verticalAlign=middle;resizable=0;points=[];labelBackgroundColor=#ffffff;" parent="GRJgY5RRLAInYM_Wc20V-9" vertex="1" connectable="0">
          <mxGeometry x="-0.1576" relative="1" as="geometry">
            <mxPoint as="offset" />
          </mxGeometry>
        </mxCell>
        <mxCell id="GRJgY5RRLAInYM_Wc20V-7" value="predicates filter" style="shape=process;whiteSpace=wrap;html=1;backgroundOutline=1;fillColor=#dae8fc;strokeColor=#6c8ebf;" parent="1" vertex="1">
          <mxGeometry x="210" y="221" width="140" height="30" as="geometry" />
        </mxCell>
        <mxCell id="GRJgY5RRLAInYM_Wc20V-8" value="priority extender" style="shape=process;whiteSpace=wrap;html=1;backgroundOutline=1;fillColor=#dae8fc;strokeColor=#6c8ebf;" parent="1" vertex="1">
          <mxGeometry x="210" y="300" width="140" height="30" as="geometry" />
        </mxCell>
        <mxCell id="GRJgY5RRLAInYM_Wc20V-10" value="" style="rounded=0;whiteSpace=wrap;html=1;" parent="1" vertex="1">
          <mxGeometry x="530" y="191" width="220" height="229" as="geometry" />
        </mxCell>
        <mxCell id="GRJgY5RRLAInYM_Wc20V-11" value="&lt;pre style=&quot;background-color: rgb(255 , 255 , 255) ; font-family: &amp;#34;menlo&amp;#34;&quot;&gt;&lt;font style=&quot;font-size: 9px&quot;&gt;Extender&lt;/font&gt;&lt;/pre&gt;" style="text;html=1;strokeColor=none;fillColor=none;align=center;verticalAlign=middle;whiteSpace=wrap;rounded=0;" parent="1" vertex="1">
          <mxGeometry x="532" y="192" width="78" height="20" as="geometry" />
        </mxCell>
        <mxCell id="GRJgY5RRLAInYM_Wc20V-24" style="edgeStyle=orthogonalEdgeStyle;curved=1;rounded=0;orthogonalLoop=1;jettySize=auto;html=1;exitX=1;exitY=0.5;exitDx=0;exitDy=0;entryX=0.5;entryY=1;entryDx=0;entryDy=0;startArrow=classic;startFill=1;endArrow=classic;endFill=1;" parent="1" source="GRJgY5RRLAInYM_Wc20V-12" target="GRJgY5RRLAInYM_Wc20V-18" edge="1">
          <mxGeometry relative="1" as="geometry" />
        </mxCell>
        <mxCell id="GRJgY5RRLAInYM_Wc20V-25" value="check exsits" style="text;html=1;align=center;verticalAlign=middle;resizable=0;points=[];labelBackgroundColor=#ffffff;" parent="GRJgY5RRLAInYM_Wc20V-24" vertex="1" connectable="0">
          <mxGeometry x="-0.1919" y="23" relative="1" as="geometry">
            <mxPoint as="offset" />
          </mxGeometry>
        </mxCell>
        <mxCell id="GRJgY5RRLAInYM_Wc20V-12" value="predicate extender" style="shape=process;whiteSpace=wrap;html=1;backgroundOutline=1;fillColor=#dae8fc;strokeColor=#6c8ebf;" parent="1" vertex="1">
          <mxGeometry x="557" y="221" width="142" height="29" as="geometry" />
        </mxCell>
        <mxCell id="GRJgY5RRLAInYM_Wc20V-13" style="edgeStyle=orthogonalEdgeStyle;rounded=0;orthogonalLoop=1;jettySize=auto;html=1;exitX=1;exitY=0.5;exitDx=0;exitDy=0;entryX=0;entryY=0.5;entryDx=0;entryDy=0;curved=1;startArrow=classic;startFill=1;" parent="1" source="GRJgY5RRLAInYM_Wc20V-7" target="GRJgY5RRLAInYM_Wc20V-12" edge="1">
          <mxGeometry relative="1" as="geometry" />
        </mxCell>
        <mxCell id="GRJgY5RRLAInYM_Wc20V-14" value="filtered nodes(https)" style="text;html=1;align=center;verticalAlign=middle;resizable=0;points=[];labelBackgroundColor=#ffffff;" parent="GRJgY5RRLAInYM_Wc20V-13" vertex="1" connectable="0">
          <mxGeometry x="-0.0651" relative="1" as="geometry">
            <mxPoint as="offset" />
          </mxGeometry>
        </mxCell>
        <mxCell id="GRJgY5RRLAInYM_Wc20V-15" value="priority extender" style="shape=process;whiteSpace=wrap;html=1;backgroundOutline=1;fillColor=#dae8fc;strokeColor=#6c8ebf;" parent="1" vertex="1">
          <mxGeometry x="557" y="300" width="142" height="29" as="geometry" />
        </mxCell>
        <mxCell id="GRJgY5RRLAInYM_Wc20V-16" style="edgeStyle=orthogonalEdgeStyle;curved=1;rounded=0;orthogonalLoop=1;jettySize=auto;html=1;exitX=1;exitY=0.5;exitDx=0;exitDy=0;startArrow=classic;startFill=1;" parent="1" source="GRJgY5RRLAInYM_Wc20V-8" target="GRJgY5RRLAInYM_Wc20V-15" edge="1">
          <mxGeometry relative="1" as="geometry" />
        </mxCell>
        <mxCell id="GRJgY5RRLAInYM_Wc20V-17" value="scored nodes(https)" style="text;html=1;align=center;verticalAlign=middle;resizable=0;points=[];labelBackgroundColor=#ffffff;" parent="GRJgY5RRLAInYM_Wc20V-16" vertex="1" connectable="0">
          <mxGeometry x="-0.0529" relative="1" as="geometry">
            <mxPoint as="offset" />
          </mxGeometry>
        </mxCell>
        <mxCell id="GRJgY5RRLAInYM_Wc20V-18" value="bind store" style="shape=cylinder;whiteSpace=wrap;html=1;boundedLbl=1;backgroundOutline=1;" parent="1" vertex="1">
          <mxGeometry x="740" y="80" width="64" height="80" as="geometry" />
        </mxCell>
        <mxCell id="GRJgY5RRLAInYM_Wc20V-22" style="edgeStyle=orthogonalEdgeStyle;curved=1;rounded=0;orthogonalLoop=1;jettySize=auto;html=1;exitX=1;exitY=0.5;exitDx=0;exitDy=0;entryX=0.5;entryY=0;entryDx=0;entryDy=0;startArrow=none;startFill=0;endArrow=classic;endFill=1;" parent="1" source="GRJgY5RRLAInYM_Wc20V-33" target="GRJgY5RRLAInYM_Wc20V-21" edge="1">
          <mxGeometry relative="1" as="geometry" />
        </mxCell>
        <mxCell id="GRJgY5RRLAInYM_Wc20V-26" value="pod bind info" style="text;html=1;align=center;verticalAlign=middle;resizable=0;points=[];labelBackgroundColor=#ffffff;" parent="GRJgY5RRLAInYM_Wc20V-22" vertex="1" connectable="0">
          <mxGeometry x="-0.1377" y="-2" relative="1" as="geometry">
            <mxPoint as="offset" />
          </mxGeometry>
        </mxCell>
        <mxCell id="GRJgY5RRLAInYM_Wc20V-19" value="etcd cluster" style="ellipse;shape=cloud;whiteSpace=wrap;html=1;" parent="1" vertex="1">
          <mxGeometry x="324" y="-90" width="160" height="70" as="geometry" />
        </mxCell>
        <mxCell id="GRJgY5RRLAInYM_Wc20V-23" style="edgeStyle=orthogonalEdgeStyle;curved=1;rounded=0;orthogonalLoop=1;jettySize=auto;html=1;exitX=0.5;exitY=1;exitDx=0;exitDy=0;startArrow=none;startFill=0;endArrow=classic;endFill=1;" parent="1" source="GRJgY5RRLAInYM_Wc20V-21" target="GRJgY5RRLAInYM_Wc20V-18" edge="1">
          <mxGeometry relative="1" as="geometry" />
        </mxCell>
        <mxCell id="GRJgY5RRLAInYM_Wc20V-21" value="informer" style="rounded=0;whiteSpace=wrap;html=1;" parent="1" vertex="1">
          <mxGeometry x="557" y="60" width="100" height="40" as="geometry" />
        </mxCell>
        <mxCell id="GRJgY5RRLAInYM_Wc20V-30" value="&lt;pre style=&quot;background-color: rgb(255 , 255 , 255) ; font-family: &amp;#34;menlo&amp;#34;&quot;&gt;&lt;font style=&quot;font-size: 9px&quot;&gt;sched.bind&lt;/font&gt;&lt;/pre&gt;" style="text;html=1;strokeColor=none;fillColor=none;align=center;verticalAlign=middle;whiteSpace=wrap;rounded=0;" parent="1" vertex="1">
          <mxGeometry x="186" y="510" width="84" height="20" as="geometry" />
        </mxCell>
        <mxCell id="GRJgY5RRLAInYM_Wc20V-31" value="&lt;pre style=&quot;font-family: &amp;#34;menlo&amp;#34;&quot;&gt;&lt;font style=&quot;font-size: 9px&quot;&gt;sched.bind&lt;/font&gt;&lt;/pre&gt;" style="shape=process;whiteSpace=wrap;html=1;backgroundOutline=1;fillColor=#dae8fc;strokeColor=#6c8ebf;" parent="1" vertex="1">
          <mxGeometry x="212" y="544" width="140" height="30" as="geometry" />
        </mxCell>
        <mxCell id="GRJgY5RRLAInYM_Wc20V-34" style="edgeStyle=orthogonalEdgeStyle;curved=1;rounded=0;orthogonalLoop=1;jettySize=auto;html=1;exitX=0.5;exitY=0;exitDx=0;exitDy=0;entryX=0.55;entryY=0.95;entryDx=0;entryDy=0;entryPerimeter=0;startArrow=none;startFill=0;endArrow=classic;endFill=1;" parent="1" source="GRJgY5RRLAInYM_Wc20V-33" target="GRJgY5RRLAInYM_Wc20V-19" edge="1">
          <mxGeometry relative="1" as="geometry" />
        </mxCell>
        <mxCell id="GRJgY5RRLAInYM_Wc20V-33" value="apiServer" style="ellipse;whiteSpace=wrap;html=1;" parent="1" vertex="1">
          <mxGeometry x="344" y="10" width="140" height="50" as="geometry" />
        </mxCell>
        <mxCell id="lg2LP7ItbaPDtnVaV1oR-7" style="edgeStyle=orthogonalEdgeStyle;rounded=0;orthogonalLoop=1;jettySize=auto;html=1;exitX=0.5;exitY=1;exitDx=0;exitDy=0;entryX=0.5;entryY=0;entryDx=0;entryDy=0;" edge="1" parent="1" source="lg2LP7ItbaPDtnVaV1oR-5" target="GRJgY5RRLAInYM_Wc20V-28">
          <mxGeometry relative="1" as="geometry" />
        </mxCell>
        <mxCell id="lg2LP7ItbaPDtnVaV1oR-8" value="y" style="text;html=1;align=center;verticalAlign=middle;resizable=0;points=[];labelBackgroundColor=#ffffff;" vertex="1" connectable="0" parent="lg2LP7ItbaPDtnVaV1oR-7">
          <mxGeometry x="-0.36" relative="1" as="geometry">
            <mxPoint as="offset" />
          </mxGeometry>
        </mxCell>
        <mxCell id="lg2LP7ItbaPDtnVaV1oR-12" style="edgeStyle=orthogonalEdgeStyle;rounded=0;orthogonalLoop=1;jettySize=auto;html=1;exitX=1;exitY=0.5;exitDx=0;exitDy=0;entryX=0.5;entryY=0;entryDx=0;entryDy=0;curved=1;" edge="1" parent="1" source="lg2LP7ItbaPDtnVaV1oR-5" target="lg2LP7ItbaPDtnVaV1oR-9">
          <mxGeometry relative="1" as="geometry" />
        </mxCell>
        <mxCell id="lg2LP7ItbaPDtnVaV1oR-13" value="&lt;font color=&quot;#ff3333&quot;&gt;n&lt;/font&gt;" style="text;html=1;align=center;verticalAlign=middle;resizable=0;points=[];labelBackgroundColor=#ffffff;" vertex="1" connectable="0" parent="lg2LP7ItbaPDtnVaV1oR-12">
          <mxGeometry x="-0.3401" y="-7" relative="1" as="geometry">
            <mxPoint as="offset" />
          </mxGeometry>
        </mxCell>
        <mxCell id="lg2LP7ItbaPDtnVaV1oR-5" value="&lt;pre style=&quot;background-color: #ffffff ; color: #121314 ; font-family: &amp;#34;menlo&amp;#34; ; font-size: 9.0pt&quot;&gt;&lt;span style=&quot;color: #000000&quot;&gt;result not empty?&lt;/span&gt;&lt;/pre&gt;" style="rhombus;whiteSpace=wrap;html=1;" vertex="1" parent="1">
          <mxGeometry x="202" y="390" width="160" height="70" as="geometry" />
        </mxCell>
        <mxCell id="lg2LP7ItbaPDtnVaV1oR-9" value="" style="rounded=0;whiteSpace=wrap;html=1;" vertex="1" parent="1">
          <mxGeometry x="446.5" y="510" width="249" height="90" as="geometry" />
        </mxCell>
        <mxCell id="lg2LP7ItbaPDtnVaV1oR-10" value="&lt;pre style=&quot;background-color: rgb(255 , 255 , 255) ; font-family: &amp;#34;menlo&amp;#34;&quot;&gt;&lt;pre style=&quot;font-family: &amp;#34;menlo&amp;#34; ; font-size: 9pt&quot;&gt;sched.preempt&lt;/pre&gt;&lt;/pre&gt;" style="text;html=1;strokeColor=none;fillColor=none;align=center;verticalAlign=middle;whiteSpace=wrap;rounded=0;" vertex="1" parent="1">
          <mxGeometry x="446.5" y="510" width="100" height="20" as="geometry" />
        </mxCell>
        <mxCell id="lg2LP7ItbaPDtnVaV1oR-11" value="&lt;pre style=&quot;font-family: &amp;#34;menlo&amp;#34;&quot;&gt;&lt;font style=&quot;font-size: 9px&quot;&gt;preempt with priority&lt;/font&gt;&lt;/pre&gt;" style="shape=process;whiteSpace=wrap;html=1;backgroundOutline=1;fillColor=#dae8fc;strokeColor=#6c8ebf;" vertex="1" parent="1">
          <mxGeometry x="465.5" y="546" width="211" height="26" as="geometry" />
        </mxCell>
        <mxCell id="lg2LP7ItbaPDtnVaV1oR-17" style="rounded=0;orthogonalLoop=1;jettySize=auto;html=1;exitX=0.5;exitY=1;exitDx=0;exitDy=0;entryX=0.75;entryY=0;entryDx=0;entryDy=0;startArrow=classic;startFill=1;" edge="1" parent="1" source="lg2LP7ItbaPDtnVaV1oR-16" target="lg2LP7ItbaPDtnVaV1oR-11">
          <mxGeometry relative="1" as="geometry" />
        </mxCell>
        <mxCell id="lg2LP7ItbaPDtnVaV1oR-18" value="nodeToVictims(https)" style="text;html=1;align=center;verticalAlign=middle;resizable=0;points=[];labelBackgroundColor=#ffffff;" vertex="1" connectable="0" parent="lg2LP7ItbaPDtnVaV1oR-17">
          <mxGeometry x="-0.0641" relative="1" as="geometry">
            <mxPoint as="offset" />
          </mxGeometry>
        </mxCell>
        <mxCell id="lg2LP7ItbaPDtnVaV1oR-16" value="&lt;pre style=&quot;font-family: &amp;#34;menlo&amp;#34; ; font-size: 9pt&quot;&gt;ProcessPreemption&lt;/pre&gt;" style="shape=process;whiteSpace=wrap;html=1;backgroundOutline=1;fillColor=#dae8fc;strokeColor=#6c8ebf;" vertex="1" parent="1">
          <mxGeometry x="546.5" y="361" width="163" height="29" as="geometry" />
        </mxCell>
      </root>
    </mxGraphModel>
  </diagram>
</mxfile>
